<?xml version="1.0" encoding="utf-8"?>
<svg xmlns="http://www.w3.org/2000/svg">
<symbol id="arrow-down" viewBox="0 0 14 14">
  <path transform="matrix(1 0 0 -1 0 14)" d="M8.024 4.1v8.6a1.125 1.125 0 0 1-2.25 0V4.1L2.18 7.695A1.125 1.125 0 1 1 .59 6.104L6.103.588c.44-.439 1.151-.439 1.59 0l5.516 5.516a1.125 1.125 0 0 1-1.59 1.59L8.023 4.1z"/>

</symbol>
<symbol id="arrow-up" viewBox="0 0 14 14">
    <path d="M8.024 4.1v8.6a1.125 1.125 0 0 1-2.25 0V4.1L2.18 7.695A1.125 1.125 0 1 1 .59 6.104L6.103.588c.44-.439 1.151-.439 1.59 0l5.516 5.516a1.125 1.125 0 0 1-1.59 1.59L8.023 4.1z"/>

</symbol>
<symbol id="bold" viewBox="0 0 12 14"><path d="M5.997 14H1.72c-.618 0-1.058-.138-1.323-.415C.132 13.308 0 12.867 0 12.262V1.738C0 1.121.135.676.406.406.676.136 1.114 0 1.719 0h4.536c.669 0 1.248.041 1.738.124.49.083.93.242 1.318.478a3.458 3.458 0 0 1 1.461 1.752c.134.366.2.753.2 1.16 0 1.401-.7 2.426-2.1 3.075 1.84.586 2.76 1.726 2.76 3.42 0 .782-.2 1.487-.602 2.114a3.61 3.61 0 0 1-1.623 1.39 5.772 5.772 0 0 1-1.471.377c-.554.073-1.2.11-1.939.11zm-.21-6.217h-2.95v4.087h3.046c1.916 0 2.874-.69 2.874-2.072 0-.707-.248-1.22-.745-1.537-.496-.319-1.238-.478-2.225-.478zM2.837 2.13v3.619h2.597c.707 0 1.252-.067 1.638-.2.385-.134.68-.389.883-.765.16-.267.239-.566.239-.897 0-.707-.252-1.176-.755-1.409-.503-.232-1.27-.348-2.301-.348H2.836z"/>
</symbol>
<symbol id="cross" viewBox="0 0 237 237">
  <path transform="rotate(45 280.675 51.325)" d="M191 191V73c0-5.523 4.477-10 10-10h25c5.523 0 10 4.477 10 10v118h118c5.523 0 10 4.477 10 10v25c0 5.523-4.477 10-10 10H236v118c0 5.523-4.477 10-10 10h-25c-5.523 0-10-4.477-10-10V236H73c-5.523 0-10-4.477-10-10v-25c0-5.523 4.477-10 10-10h118z"/>

</symbol>
<symbol id="dots" viewBox="0 0 8 8">
  <circle cx="6.5" cy="1.5" r="1.5"/>
  <circle cx="6.5" cy="6.5" r="1.5"/>
  <circle cx="1.5" cy="1.5" r="1.5"/>
  <circle cx="1.5" cy="6.5" r="1.5"/>

</symbol>
<symbol id="italic" viewBox="0 0 4 11">
    <path d="M3.289 4.17L2.164 9.713c-.078.384-.238.674-.48.87-.243.198-.52.296-.831.296-.312 0-.545-.1-.699-.302-.153-.202-.192-.49-.116-.864L1.15 4.225c.077-.38.232-.665.466-.857a1.25 1.25 0 01.818-.288c.312 0 .55.096.713.288.163.192.21.46.141.801zm-.667-2.09c-.295 0-.53-.09-.706-.273-.176-.181-.233-.439-.173-.77.055-.302.207-.55.457-.745C2.45.097 2.716 0 3 0c.273 0 .5.088.68.265.179.176.238.434.177.771-.06.327-.21.583-.45.767-.24.185-.502.277-.785.277z"/>

</symbol>
<symbol id="link" viewBox="0 0 1024 1024"><defs><style type="text/css"/></defs><path d="M543.325091 682.961455l-195.072 195.16509c-26.949818 26.949818-62.836364 41.890909-101.003636 41.89091-38.167273 0-74.100364-14.894545-101.003637-41.89091a142.336 142.336 0 0 1-42.030545-101.003636c0-38.213818 14.848-74.100364 41.890909-101.050182l195.165091-195.165091a39.191273 39.191273 0 0 0 0-55.528727 39.191273 39.191273 0 0 0-55.528728 0l-195.16509 195.025455c-41.890909 41.890909-64.884364 97.559273-64.884364 156.672s22.993455 114.781091 64.884364 156.578909A220.811636 220.811636 0 0 0 247.156364 998.4a220.439273 220.439273 0 0 0 156.578909-64.791273l195.165091-195.165091a39.191273 39.191273 0 0 0 0-55.528727 39.377455 39.377455 0 0 0-55.528728 0z m390.190545-592.29091a221.602909 221.602909 0 0 0-313.204363 0L425.146182 285.835636a39.191273 39.191273 0 0 0 0 55.528728c15.36 15.36 40.261818 15.36 55.528727 0l195.165091-195.165091a143.080727 143.080727 0 0 1 244.037818 101.003636c0 38.213818-14.801455 74.100364-41.890909 101.050182l-195.165091 195.165091a39.191273 39.191273 0 0 0 27.834182 67.025454 39.330909 39.330909 0 0 0 27.834182-11.496727l195.165091-195.165091a221.556364 221.556364 0 0 0-0.139637-313.111273zM483.141818 598.714182l111.243637-111.243637a39.191273 39.191273 0 0 0 0-55.528727 39.191273 39.191273 0 0 0-55.482182 0l-111.290182 111.243637a39.191273 39.191273 0 0 0 27.834182 67.025454 39.098182 39.098182 0 0 0 27.694545-11.496727z" opacity=".65" p-id="11119"/>
</symbol>
<symbol id="plus" viewBox="0 0 14 14">
    <path d="M8.05 5.8h4.625a1.125 1.125 0 0 1 0 2.25H8.05v4.625a1.125 1.125 0 0 1-2.25 0V8.05H1.125a1.125 1.125 0 0 1 0-2.25H5.8V1.125a1.125 1.125 0 0 1 2.25 0V5.8z"/>

</symbol>
<symbol id="sad-face" viewBox="0 0 52 52">
    <path fill="#D76B6B" fill-rule="nonzero" d="M26 52C11.64 52 0 40.36 0 26S11.64 0 26 0s26 11.64 26 26-11.64 26-26 26zm0-3.25c12.564 0 22.75-10.186 22.75-22.75S38.564 3.25 26 3.25 3.25 13.436 3.25 26 13.436 48.75 26 48.75zM15.708 33.042a2.167 2.167 0 1 1 0-4.334 2.167 2.167 0 0 1 0 4.334zm23.834 0a2.167 2.167 0 1 1 0-4.334 2.167 2.167 0 0 1 0 4.334zm-15.875 5.452a1.083 1.083 0 1 1-1.834-1.155c1.331-2.114 3.49-3.179 6.334-3.179 2.844 0 5.002 1.065 6.333 3.18a1.083 1.083 0 1 1-1.833 1.154c-.913-1.45-2.366-2.167-4.5-2.167s-3.587.717-4.5 2.167z"/>

</symbol>
<symbol id="toggler-down">
  <path d="M6.5 9.294a.792.792 0 01-.562-.232L2.233 5.356a.794.794 0 011.123-1.123L6.5 7.377l3.144-3.144a.794.794 0 011.123 1.123L7.062 9.062a.792.792 0 01-.562.232z"/>

</symbol>
<symbol id="unlink" viewBox="0 0 1024 1024"><defs><style type="text/css"/></defs><path d="M429.097 324.173l152.39-154.617C618.06 132.448 666.696 112 718.42 112c51.723 0 100.361 20.435 136.947 57.543 75.51 76.613 75.51 201.273 0 277.886l-69.654 70.673a40.855 40.855 0 0 1-58.366 0c-16.115-16.35-16.115-42.867 0-59.218l69.655-70.673c43.33-43.963 43.33-115.486 0-159.436-20.992-21.299-48.892-33.024-78.57-33.024-29.677 0-57.59 11.725-78.569 33.024l-152.39 154.617-58.377-59.219zM596.172 700.192l-152.39 154.617c-36.573 37.108-85.21 57.556-136.934 57.556-51.724 0-100.361-20.435-136.948-57.543-75.509-76.613-75.509-201.273 0-277.886l69.655-70.673a40.855 40.855 0 0 1 58.365 0c16.115 16.35 16.115 42.868 0 59.218l-69.654 70.673c-43.33 43.963-43.33 115.487 0 159.437 20.991 21.298 48.891 33.023 78.57 33.023 29.677 0 57.59-11.725 78.569-33.023l152.389-154.618 58.378 59.219z" p-id="10135"/><path d="M833.733285 782.821773m-25.455844-25.455844l-541.643795-541.643795q-25.455844-25.455844-50.911688 0l0 0q-25.455844 25.455844 0 50.911688l541.643795 541.643795q25.455844 25.455844 50.911688 0l0 0q25.455844-25.455844 0-50.911688Z" p-id="10136"/>
</symbol></svg>