<svg t="1606874295364" class="icon" viewBox="0 0 1024 1024" version="1.1" xmlns="http://www.w3.org/2000/svg" p-id="11118" xmlns:xlink="http://www.w3.org/1999/xlink" width="200" height="200"><defs><style type="text/css"></style></defs><path d="M543.325091 682.961455l-195.072 195.16509c-26.949818 26.949818-62.836364 41.890909-101.003636 41.89091-38.167273 0-74.100364-14.894545-101.003637-41.89091a142.336 142.336 0 0 1-42.030545-101.003636c0-38.213818 14.848-74.100364 41.890909-101.050182l195.165091-195.165091a39.191273 39.191273 0 0 0 0-55.528727 39.191273 39.191273 0 0 0-55.528728 0l-195.16509 195.025455c-41.890909 41.890909-64.884364 97.559273-64.884364 156.672s22.993455 114.781091 64.884364 156.578909A220.811636 220.811636 0 0 0 247.156364 998.4a220.439273 220.439273 0 0 0 156.578909-64.791273l195.165091-195.165091a39.191273 39.191273 0 0 0 0-55.528727 39.377455 39.377455 0 0 0-55.528728 0z m390.190545-592.29091a221.602909 221.602909 0 0 0-313.204363 0L425.146182 285.835636a39.191273 39.191273 0 0 0 0 55.528728c15.36 15.36 40.261818 15.36 55.528727 0l195.165091-195.165091a143.080727 143.080727 0 0 1 244.037818 101.003636c0 38.213818-14.801455 74.100364-41.890909 101.050182l-195.165091 195.165091a39.191273 39.191273 0 0 0 27.834182 67.025454 39.330909 39.330909 0 0 0 27.834182-11.496727l195.165091-195.165091a221.556364 221.556364 0 0 0-0.139637-313.111273zM483.141818 598.714182l111.243637-111.243637a39.191273 39.191273 0 0 0 0-55.528727 39.191273 39.191273 0 0 0-55.482182 0l-111.290182 111.243637a39.191273 39.191273 0 0 0 27.834182 67.025454 39.098182 39.098182 0 0 0 27.694545-11.496727z" opacity=".65" p-id="11119"></path></svg>