<svg t="1606874145313" class="icon" viewBox="0 0 1024 1024" version="1.1" xmlns="http://www.w3.org/2000/svg" p-id="10134" xmlns:xlink="http://www.w3.org/1999/xlink" width="200" height="200"><defs><style type="text/css"></style></defs><path d="M429.097 324.173l152.39-154.617C618.06 132.448 666.696 112 718.42 112c51.723 0 100.361 20.435 136.947 57.543 75.51 76.613 75.51 201.273 0 277.886l-69.654 70.673a40.855 40.855 0 0 1-58.366 0c-16.115-16.35-16.115-42.867 0-59.218l69.655-70.673c43.33-43.963 43.33-115.486 0-159.436-20.992-21.299-48.892-33.024-78.57-33.024-29.677 0-57.59 11.725-78.569 33.024l-152.39 154.617-58.377-59.219zM596.172 700.192l-152.39 154.617c-36.573 37.108-85.21 57.556-136.934 57.556-51.724 0-100.361-20.435-136.948-57.543-75.509-76.613-75.509-201.273 0-277.886l69.655-70.673a40.855 40.855 0 0 1 58.365 0c16.115 16.35 16.115 42.868 0 59.218l-69.654 70.673c-43.33 43.963-43.33 115.487 0 159.437 20.991 21.298 48.891 33.023 78.57 33.023 29.677 0 57.59-11.725 78.569-33.023l152.389-154.618 58.378 59.219z" p-id="10135"></path><path d="M833.733285 782.821773m-25.455844-25.455844l-541.643795-541.643795q-25.455844-25.455844-50.911688 0l0 0q-25.455844 25.455844 0 50.911688l541.643795 541.643795q25.455844 25.455844 50.911688 0l0 0q25.455844-25.455844 0-50.911688Z"  p-id="10136"></path></svg>